<?xml version="1.0" encoding="UTF-8" standalone="no"?>
<svg
   xmlns:dc="http://purl.org/dc/elements/1.1/"
   xmlns:cc="http://creativecommons.org/ns#"
   xmlns:rdf="http://www.w3.org/1999/02/22-rdf-syntax-ns#"
   xmlns:svg="http://www.w3.org/2000/svg"
   xmlns="http://www.w3.org/2000/svg"
   xmlns:sodipodi="http://sodipodi.sourceforge.net/DTD/sodipodi-0.dtd"
   xmlns:inkscape="http://www.inkscape.org/namespaces/inkscape"
   viewBox="0 0 456.41168 404.38635"
   version="1.1"
   id="svg219"
   sodipodi:docname="girlphotographer.svg"
   inkscape:version="1.0.2-2 (e86c870879, 2021-01-15)"
   width="456.41168"
   height="404.38635">
  <metadata
     id="metadata225">
    <rdf:RDF>
      <cc:Work
         rdf:about="">
        <dc:format>image/svg+xml</dc:format>
        <dc:type
           rdf:resource="http://purl.org/dc/dcmitype/StillImage" />
        <dc:title />
      </cc:Work>
    </rdf:RDF>
  </metadata>
  <defs
     id="defs223" />
  <sodipodi:namedview
     pagecolor="#ffffff"
     bordercolor="#666666"
     borderopacity="1"
     objecttolerance="10"
     gridtolerance="10"
     guidetolerance="10"
     inkscape:pageopacity="0"
     inkscape:pageshadow="2"
     inkscape:window-width="1920"
     inkscape:window-height="1001"
     id="namedview221"
     showgrid="false"
     inkscape:zoom="1.495825"
     inkscape:cx="159.69394"
     inkscape:cy="215.51725"
     inkscape:window-x="-9"
     inkscape:window-y="-9"
     inkscape:window-maximized="1"
     inkscape:current-layer="svg219"
     inkscape:document-rotation="0" />
  <path
     id="path1050"
     style="opacity:1;fill:#f7e8f6;fill-opacity:1;stroke:none"
     d="M 104.1406,102.08476 C 237.01081,114.46338 272.76905,-29.048414 382.57195,5.3362767 497.29288,41.261039 461.59118,222.81567 388.60648,323.49138 315.62179,424.16708 161.4719,426.13757 64.142764,355.57896 -33.186388,285.02036 -19.671015,90.550069 104.1406,102.08476 Z"
     sodipodi:nodetypes="sssss" />
  <g
     id="freepik--Floor--inject-2"
     transform="translate(-39.592096,-59.089401)">
    <path
       d="m 472,460.67 c 0,0.14 -94.9,0.26 -211.94,0.26 -117.04,0 -212,-0.12 -212,-0.26 0,-0.14 94.88,-0.26 212,-0.26 117.12,0 211.94,0.11 211.94,0.26 z"
       style="fill:#263238"
       id="path2" />
  </g>
  <g
     id="freepik--Character--inject-2"
     transform="translate(-39.592096,-59.089401)">
    <path
       d="m 179.7,261.42 a 2.11,2.11 0 0 1 -0.17,-0.4 c -0.11,-0.29 -0.26,-0.68 -0.44,-1.18 -0.39,-1 -0.94,-2.59 -1.61,-4.59 -0.67,-2 -1.46,-4.48 -2.18,-7.4 a 51.29,51.29 0 0 1 -1.54,-10.09 33.85,33.85 0 0 1 1.63,-12.25 24.22,24.22 0 0 1 3.09,-6.19 31.82,31.82 0 0 1 4.92,-5.44 c 1.84,-1.7 3.82,-3.32 5.72,-5.1 a 34.83,34.83 0 0 0 5.14,-6 45.26,45.26 0 0 0 6.25,-15.41 97.72,97.72 0 0 0 2,-16.65 c 0.27,-5.42 0.37,-10.67 0.75,-15.66 a 81,81 0 0 1 2.14,-14 47.19,47.19 0 0 1 2,-6.12 42.71,42.71 0 0 1 2.66,-5.33 34.72,34.72 0 0 1 6.35,-8 28,28 0 0 1 6.3,-4.44 24.07,24.07 0 0 1 4.57,-1.69 l 1.23,-0.27 0.43,-0.08 a 2,2 0 0 1 -0.41,0.13 l -1.23,0.32 a 26.33,26.33 0 0 0 -4.5,1.78 27.84,27.84 0 0 0 -6.19,4.46 35.05,35.05 0 0 0 -6.24,8 44.12,44.12 0 0 0 -2.6,5.29 46.54,46.54 0 0 0 -2,6.08 81,81 0 0 0 -2.08,14 c -0.37,5 -0.46,10.21 -0.72,15.65 a 98,98 0 0 1 -2,16.73 45.37,45.37 0 0 1 -6.29,15.43 34.7,34.7 0 0 1 -5.22,6.11 c -1.92,1.8 -3.9,3.42 -5.74,5.09 a 32.12,32.12 0 0 0 -4.87,5.35 24.35,24.35 0 0 0 -3,6.07 33.68,33.68 0 0 0 -1.67,12.1 51.48,51.48 0 0 0 1.45,10 c 0.69,2.91 1.45,5.38 2.09,7.39 0.64,2.01 1.16,3.54 1.52,4.62 0.16,0.51 0.29,0.91 0.39,1.21 z"
       style="fill:#263238"
       id="path5" />
    <path
       d="m 295.46,108.13 c 9.36,-1.88 18.54,5.34 22.59,14 4.05,8.66 4.39,18.49 5.58,28 4.66,37 23.22,70.82 45.32,100.8 12.39,16.81 26.55,34 28.54,54.83 0.41,4.24 0.18,8.84 -2.34,12.28 -2.52,3.44 -8,4.88 -11.14,2 L 286.2,313.8 Z"
       style="fill:#263238"
       id="path7" />
    <path
       d="m 274.37,105.21 c -13.17,-10.93 -35.55,-7.46 -47.87,3.36 -12.32,10.82 -18.5,27.25 -20.5,43.54 -1.57,13 -0.74,26.14 -1.72,39.18 -0.98,13.04 -4.05,26.45 -12.25,36.63 -9.4,11.67 -25.16,18.76 -29.73,33 -2.52,7.84 -1,16.37 1,24.36 1.6,6.48 4.07,13.58 10,16.59 5,2.55 11,1.41 16.52,0.21 q 32.7,-7.12 65.35,-14.37 c 3.36,-0.75 6.94,-1.62 9.28,-4.15 2.62,-2.83 3,-7 3.27,-10.83 3.83,-57.35 6,-110.08 6.67,-167.55"
       style="fill:#263238"
       id="path9" />
    <path
       d="m 308.49,125.91 0.07,9.25 4.14,138 c 0.22,16.07 -10.86,29.55 -28.06,29.66 v 0 c -17.37,0.12 -31.85,-12.93 -32.35,-29.16 -0.52,-17 -1.38,-34.94 -1.38,-34.94 0,0 -22,-3 -27.37,-31.54 -2.66,-14.17 -2.58,-37.53 -1.91,-56.64 a 30.24,30.24 0 0 1 32.56,-29.1 z"
       style="fill:#ffbe9d"
       id="path11" />
    <path
       d="m 227,168.27 c 0.47,0.47 3.19,-1.67 7.14,-1.76 3.95,-0.09 6.9,1.79 7.32,1.3 0.2,-0.22 -0.29,-1.07 -1.57,-2 a 10.1,10.1 0 0 0 -5.88,-1.63 9.63,9.63 0 0 0 -5.66,2 c -1.16,1.01 -1.55,1.88 -1.35,2.09 z"
       style="fill:#263238"
       id="path13" />
    <path
       d="m 270,166.86 a 3.67,3.67 0 0 0 3.64,3.6 3.52,3.52 0 0 0 3.7,-3.41 3.68,3.68 0 0 0 -3.64,-3.61 3.52,3.52 0 0 0 -3.7,3.42 z"
       style="fill:#263238"
       id="path15" />
    <path
       d="m 265.88,162.25 c 0.47,0.46 3.19,-1.67 7.14,-1.77 3.95,-0.1 6.9,1.8 7.32,1.3 0.2,-0.22 -0.28,-1.07 -1.57,-2 a 10.1,10.1 0 0 0 -5.88,-1.63 9.75,9.75 0 0 0 -5.67,2 c -1.22,1.01 -1.57,1.85 -1.34,2.1 z"
       style="fill:#263238"
       id="path17" />
    <path
       d="m 252.35,191.94 c 0,-0.23 -2.46,-0.58 -6.45,-1 -1,-0.08 -2,-0.25 -2.16,-0.94 -0.16,-0.69 0.14,-1.82 0.59,-3 0.88,-2.46 1.81,-5 2.77,-7.76 3.84,-11.05 6.59,-20.13 6.15,-20.28 -0.44,-0.15 -3.92,8.69 -7.76,19.74 q -1.4,4.08 -2.65,7.8 c -0.35,1.16 -1,2.48 -0.41,4 a 2.56,2.56 0 0 0 1.7,1.43 7.51,7.51 0 0 0 1.72,0.19 c 4.01,0.09 6.49,0.04 6.5,-0.18 z"
       style="fill:#263238"
       id="path19" />
    <path
       d="m 250.91,238.76 a 72.81,72.81 0 0 0 38,-11.29 c 0,0 -8.76,19.92 -37.48,18 z"
       style="fill:#eb996e"
       id="path21" />
    <path
       d="m 254.28,201.41 a 7.11,7.11 0 0 1 6.31,-2.82 6.51,6.51 0 0 1 4.55,2.28 4.12,4.12 0 0 1 0.45,4.7 c -1,1.53 -3.24,1.94 -5.14,1.46 a 15,15 0 0 1 -5.14,-2.88 4.34,4.34 0 0 1 -1.16,-1.14 1.31,1.31 0 0 1 0,-1.47"
       style="fill:#eb996e"
       id="path23" />
    <path
       d="m 264.05,194.35 c -0.64,0 -0.53,4.27 -4.12,7.41 -3.59,3.14 -8.16,2.8 -8.18,3.4 -0.05,0.27 1,0.8 3,0.8 a 10.66,10.66 0 0 0 6.84,-2.59 9.36,9.36 0 0 0 3.18,-6.21 c 0.08,-1.8 -0.43,-2.84 -0.72,-2.81 z"
       style="fill:#263238"
       id="path25" />
    <path
       d="m 267.24,148.22 c 0.42,1.06 4.35,0.44 9,0.87 4.65,0.43 8.43,1.59 9,0.61 0.26,-0.47 -0.42,-1.46 -2,-2.46 a 15.69,15.69 0 0 0 -13.72,-1.13 c -1.63,0.73 -2.46,1.6 -2.28,2.11 z"
       style="fill:#263238"
       id="path27" />
    <path
       d="m 227.59,160.94 c 0.72,0.87 3.41,-0.13 6.69,-0.27 3.28,-0.14 6.05,0.44 6.67,-0.52 0.26,-0.46 -0.2,-1.35 -1.43,-2.16 a 9.29,9.29 0 0 0 -5.48,-1.32 9.19,9.19 0 0 0 -5.28,2 c -1.14,0.9 -1.49,1.84 -1.17,2.27 z"
       style="fill:#263238"
       id="path29" />
    <path
       d="m 248.14,152.6 c -1.78,-1.66 -2.23,-4 -2.66,-6.25 a 13.94,13.94 0 0 0 -2.9,8.46 113.45,113.45 0 0 0 -29.45,0.72 c -4.7,-14.21 1.11,-30.73 12.52,-40.41 11.41,-9.68 28.94,-14.12 43.69,-11.62 4.79,0.11 11.73,5.17 11.73,5.17 0,0 6.8,-2.6 12.16,-2.24 7.85,0.53 14.49,4.13 18.68,10.79 4.19,6.66 5.28,14.81 5.4,22.68 a 106.07,106.07 0 0 1 -4.51,32.15 v 0 c -11.56,-2.61 -17.87,-9.06 -23.68,-19.39 -3.78,-6.72 -7,-19.21 -9.08,-26.18 0,0 -4.63,1.69 -9.35,7.72 0,0 -8.5,10.17 -5.22,18 z"
       style="fill:#263238"
       id="path31" />
    <path
       d="m 307.81,170.32 c 1.9,-1.52 6.61,-2.09 8.71,-0.85 a 10,10 0 0 1 4.18,5.79 11.92,11.92 0 0 1 -2.09,11.22 c -2.64,3 -7.43,4 -10.8,1.91"
       style="fill:#ffbe9d"
       id="path33" />
    <path
       d="m 310.87,183.81 a 7.23,7.23 0 0 0 2.62,-0.24 5,5 0 0 0 2.28,-1.59 4.66,4.66 0 0 0 0.92,-3.2 4.58,4.58 0 0 0 -1.42,-3 4.93,4.93 0 0 0 -2.5,-1.21 7.28,7.28 0 0 0 -2.62,0.17 1.57,1.57 0 0 1 0.66,-0.34 4.69,4.69 0 0 1 2,-0.2 5.06,5.06 0 0 1 2.76,1.22 5.08,5.08 0 0 1 0.55,6.87 5.18,5.18 0 0 1 -2.54,1.64 4.55,4.55 0 0 1 -2,0.12 1.6,1.6 0 0 1 -0.71,-0.24 z"
       style="fill:#eb996e"
       id="path35" />
    <path
       d="m 229.37,155.63 a 2.32,2.32 0 0 1 0,-0.23 l -0.07,-0.7 c -0.06,-0.61 -0.14,-1.51 -0.22,-2.68 -0.16,-2.32 -0.34,-5.7 -0.25,-9.88 a 61.75,61.75 0 0 1 2,-14.53 38.53,38.53 0 0 1 8.43,-15.78 28.79,28.79 0 0 1 7.25,-5.87 25.47,25.47 0 0 1 8.18,-2.92 33.72,33.72 0 0 1 14.59,1 56.11,56.11 0 0 1 9.25,3.5 c 1.05,0.51 1.86,0.92 2.4,1.22 l 0.61,0.33 a 0.93,0.93 0 0 1 0.2,0.13 l -0.22,-0.08 -0.64,-0.29 c -0.55,-0.27 -1.37,-0.65 -2.43,-1.13 a 61.47,61.47 0 0 0 -9.26,-3.32 33.75,33.75 0 0 0 -14.41,-0.9 25.18,25.18 0 0 0 -8,2.89 28.8,28.8 0 0 0 -7.12,5.78 38.36,38.36 0 0 0 -8.34,15.56 62.68,62.68 0 0 0 -2.06,14.41 c -0.14,4.16 0,7.53 0.08,9.86 0,1.13 0.09,2 0.12,2.68 0,0.29 0,0.51 0,0.7 0,0.19 -0.08,0.25 -0.09,0.25 z"
       style="fill:#455a64"
       id="path37" />
    <path
       d="m 252.68,152.78 a 2.38,2.38 0 0 1 -0.11,-0.61 c -0.06,-0.46 -0.14,-1 -0.23,-1.78 -0.18,-1.54 -0.43,-3.78 -0.6,-6.55 a 58,58 0 0 1 0.13,-9.78 33.94,33.94 0 0 1 3.23,-11.52 24.45,24.45 0 0 1 3.44,-5.2 22.24,22.24 0 0 1 4.36,-3.83 28.75,28.75 0 0 1 9,-3.89 40.84,40.84 0 0 1 6.5,-1.11 c 0.77,-0.07 1.37,-0.1 1.78,-0.11 a 2.53,2.53 0 0 1 0.63,0 2.82,2.82 0 0 1 -0.62,0.1 l -1.77,0.21 A 50,50 0 0 0 272,110 a 29.32,29.32 0 0 0 -8.79,3.94 22.86,22.86 0 0 0 -7.61,8.86 34.21,34.21 0 0 0 -3.21,11.35 61.52,61.52 0 0 0 -0.24,9.7 c 0.12,2.77 0.32,5 0.43,6.55 0.06,0.73 0.1,1.32 0.13,1.79 a 2.24,2.24 0 0 1 -0.03,0.59 z"
       style="fill:#455a64"
       id="path39" />
    <path
       d="m 328.32,173.12 a 9.5,9.5 0 0 0 -0.42,-3.31 12.68,12.68 0 0 0 -6,-6.62 c -3.32,-2.05 -8,-2.64 -13,-3.93 a 21.87,21.87 0 0 1 -7.43,-3.29 23.32,23.32 0 0 1 -5.81,-6.5 64.79,64.79 0 0 1 -4,-7.71 c -1.16,-2.56 -2.19,-5.07 -3.06,-7.5 a 98.79,98.79 0 0 1 -3.76,-13.17 91.16,91.16 0 0 1 -1.49,-9.12 c -0.13,-1.08 -0.18,-1.92 -0.23,-2.49 a 8.28,8.28 0 0 1 0,-0.88 5.26,5.26 0 0 1 0.15,0.86 c 0.07,0.57 0.16,1.41 0.33,2.49 0.29,2.15 0.78,5.27 1.64,9.06 A 104.94,104.94 0 0 0 289,134.1 c 0.88,2.41 1.91,4.91 3.07,7.45 a 65.19,65.19 0 0 0 4,7.64 22.83,22.83 0 0 0 5.68,6.37 21.5,21.5 0 0 0 7.25,3.24 c 2.48,0.67 4.89,1.12 7.11,1.72 a 22.19,22.19 0 0 1 6,2.35 c 3.4,2 5.41,4.75 6,6.88 a 7.33,7.33 0 0 1 0.3,1.43 10.43,10.43 0 0 1 0,1.07 7.68,7.68 0 0 1 -0.09,0.87 z"
       style="fill:#455a64"
       id="path41" />
    <path
       d="m 385.86,284 c 0,0 0.32,-0.33 0.88,-1 a 14.79,14.79 0 0 0 2.05,-3.1 20,20 0 0 0 1.38,-13.35 c -1.2,-5.68 -4.57,-11.88 -9,-18.09 a 149.09,149.09 0 0 0 -16.6,-18.65 c -6.32,-6.24 -12.48,-12.07 -17.56,-17.88 a 92.72,92.72 0 0 1 -12,-16.6 55.61,55.61 0 0 1 -5.16,-12.78 c -0.19,-0.79 -0.38,-1.49 -0.51,-2.11 -0.13,-0.62 -0.2,-1.13 -0.28,-1.56 -0.08,-0.43 -0.11,-0.72 -0.15,-1 a 1.19,1.19 0 0 1 0,-0.33 1.13,1.13 0 0 1 0.09,0.32 c 0.05,0.24 0.12,0.55 0.21,1 0.09,0.45 0.19,0.95 0.32,1.55 0.13,0.6 0.35,1.3 0.55,2.09 a 58.19,58.19 0 0 0 5.29,12.65 94.08,94.08 0 0 0 12,16.46 c 5.08,5.77 11.24,11.58 17.57,17.83 a 147.05,147.05 0 0 1 16.62,18.74 c 4.47,6.26 7.83,12.52 9,18.29 a 21.87,21.87 0 0 1 0.27,7.87 17.5,17.5 0 0 1 -1.83,5.65 13.61,13.61 0 0 1 -2.16,3.07 8.2,8.2 0 0 1 -0.98,0.93 z"
       style="fill:#263238"
       id="path43" />
    <path
       d="M 296.87,106.63 A 19.52,19.52 0 0 1 290,88.8 a 20.79,20.79 0 0 1 11.55,-15.34 20,20 0 0 1 17,-0.1 17.75,17.75 0 0 1 9.9,13.64 16,16 0 0 1 -7,15.09 c -2.41,1.53 -5.19,2.32 -7.86,3.35 -2.67,1.03 -5.33,2.36 -7.05,4.63 -1.72,2.27 -2.2,5.7 -0.44,7.94"
       style="fill:#263238"
       id="path45" />
    <path
       d="m 299.43,77.91 a 2.68,2.68 0 0 1 0.32,-0.51 4.6,4.6 0 0 1 0.45,-0.57 5.64,5.64 0 0 1 0.69,-0.71 11.19,11.19 0 0 1 5.62,-2.78 11.7,11.7 0 0 1 9,1.92 14.51,14.51 0 0 1 5.92,9.6 17.27,17.27 0 0 1 -2.27,11.14 20.23,20.23 0 0 1 -6.47,6.7 23.63,23.63 0 0 1 -5.67,2.73 c -0.7,0.24 -1.26,0.39 -1.64,0.48 a 3,3 0 0 1 -0.59,0.11 2.54,2.54 0 0 1 0.56,-0.21 c 0.37,-0.12 0.91,-0.3 1.6,-0.57 a 25.73,25.73 0 0 0 5.53,-2.84 20.13,20.13 0 0 0 6.26,-6.64 17,17 0 0 0 2.19,-10.8 14.17,14.17 0 0 0 -5.69,-9.29 11.55,11.55 0 0 0 -4.44,-1.92 11.81,11.81 0 0 0 -4.23,0 11.35,11.35 0 0 0 -5.57,2.52 20.86,20.86 0 0 0 -1.57,1.64 z"
       style="fill:#455a64"
       id="path47" />
    <path
       d="m 311.58,107.3 a 5.41,5.41 0 0 0 -4.42,-1.78 c -1.65,0 -3.27,0.43 -4.91,0.54 a 13.61,13.61 0 0 1 -7.77,-1.8 1.33,1.33 0 0 0 -2.08,0.11 2.1,2.1 0 0 0 0.42,2.33 4.68,4.68 0 0 0 2.19,1.2 c 3.59,1.06 7.6,0.59 10.93,2.28 1.58,0.81 3.3,2.1 4.91,1.37 1.61,-0.73 1.72,-2.93 0.73,-4.25 z"
       style="fill:#c060a1"
       id="path49" />
    <path
       d="m 294.76,107.81 c 0,0 0,0 0,0.13 v 0.14 l -0.14,-0.15 A 2.23,2.23 0 0 1 294.39,106.19 2.35,2.35 0 0 1 295,105 c 0.26,-0.25 0.5,-0.29 0.53,-0.23 a 7.43,7.43 0 0 0 -0.64,1.54 8.1,8.1 0 0 0 -0.11,1.57 h -0.16 c 0.08,-0.07 0.12,-0.09 0.14,-0.07 z"
       style="fill:#263238"
       id="path51" />
    <path
       d="m 298.34,108.51 c 0,0 -0.22,-0.06 -0.38,-0.32 a 1.89,1.89 0 0 1 0.3,-2.21 c 0.22,-0.22 0.41,-0.27 0.45,-0.22 0.04,0.05 -0.36,0.6 -0.44,1.34 -0.08,0.74 0.19,1.33 0.07,1.41 z"
       style="fill:#263238"
       id="path53" />
    <path
       d="m 302.09,109.33 c -0.13,-0.08 0.21,-0.8 0.24,-1.75 0.03,-0.95 -0.24,-1.69 -0.11,-1.76 0.13,-0.07 0.68,0.68 0.63,1.78 -0.05,1.1 -0.66,1.82 -0.76,1.73 z"
       style="fill:#263238"
       id="path55" />
    <path
       d="m 306.4,110.88 a 6.58,6.58 0 0 0 0.62,-2.71 6.42,6.42 0 0 0 -1.09,-2.56 c 0,0 0.37,0.09 0.75,0.51 a 3.38,3.38 0 0 1 0.86,2 3.42,3.42 0 0 1 -0.5,2.13 c -0.3,0.48 -0.59,0.68 -0.64,0.63 z"
       style="fill:#263238"
       id="path57" />
    <path
       d="m 309.18,111.46 c -0.05,-0.07 0.24,-0.3 0.58,-0.77 a 3.92,3.92 0 0 0 0.38,-4.16 c -0.25,-0.51 -0.49,-0.8 -0.43,-0.86 0.06,-0.06 0.39,0.16 0.75,0.68 a 3.66,3.66 0 0 1 0.61,2.37 3.61,3.61 0 0 1 -1,2.21 c -0.48,0.45 -0.86,0.58 -0.89,0.53 z"
       style="fill:#263238"
       id="path59" />
    <path
       d="m 311,114.14 a 1.19,1.19 0 0 1 0.08,0.35 3.92,3.92 0 0 1 0,1 5.88,5.88 0 0 1 -1.74,3.36 7.06,7.06 0 0 1 -2.21,1.5 9.35,9.35 0 0 1 -3,0.65 16.51,16.51 0 0 1 -6.77,-1.28 23.52,23.52 0 0 1 -10,-7.37 21.31,21.31 0 0 1 -2.07,-3.17 6.3,6.3 0 0 1 -0.56,-1.27 41.39,41.39 0 0 0 2.92,4.21 24.46,24.46 0 0 0 9.88,7.12 16.51,16.51 0 0 0 6.56,1.28 7.4,7.4 0 0 0 4.95,-1.93 5.94,5.94 0 0 0 1.8,-3.13 c 0.16,-0.82 0.1,-1.32 0.16,-1.32 z"
       style="fill:#455a64"
       id="path61" />
    <path
       d="m 410.78,360.69 c -1.2,-11.55 -7.73,-21.85 -15,-30.94 -7.27,-9.09 -15.44,-17.54 -21,-27.76 -3.72,-6.85 -6.14,-14.33 -9.41,-21.41 -3.27,-7.08 -7.59,-14 -14.05,-18.35 -6.46,-4.35 -23.8,-10.68 -37.46,-8.29 l -1.86,3.21 c -20.37,7.41 -42.23,8.4 -60.3,-0.58 -9.94,3.69 -51.81,14.05 -59.18,26.49 -1.75,3 -1.25,10.1 0.62,19.49 l -33.14,-19.7 -29.46,76.25 -0.18,0.59 a 39,39 0 0 0 24.82,48 v 0 A 77.43,77.43 0 0 0 213,388.47 l 5.51,-4.88 c 4.28,11.62 7.33,19.42 7.33,19.42 l -19,57.66 H 353.5 l -21.73,-61 7,-18.05 c 0.9,1.6 1.86,3.2 2.88,4.83 6.57,10.52 21.69,21.94 34.09,21.78 7.24,-0.09 15.76,-4.91 21.24,-9.64 10.1,-8.67 15.17,-24.66 13.8,-37.9 z"
       style="fill:#c060a1"
       id="path63" />
    <path
       d="m 160,282.85 0.22,0.11 0.64,0.36 2.45,1.41 9.16,5.39 31.71,18.82 0.19,0.12 -0.1,0.2 c -3.18,6.9 -5.19,15 -6.56,23.58 -1.64,10.33 -2.55,20.31 -4.51,29.21 a 85.09,85.09 0 0 1 -3.6,12.41 57,57 0 0 1 -5,10.07 42,42 0 0 1 -11,11.91 31.49,31.49 0 0 1 -3.78,2.32 l -1,0.51 a 1.5,1.5 0 0 1 -0.36,0.15 l 0.34,-0.2 1,-0.56 a 34.72,34.72 0 0 0 3.71,-2.38 42.88,42.88 0 0 0 10.83,-11.94 58.2,58.2 0 0 0 4.94,-10 88,88 0 0 0 3.41,-12.34 c 1.92,-8.87 2.81,-18.83 4.46,-29.2 1.37,-8.56 3.4,-16.74 6.63,-23.7 l 0.09,0.32 -31.61,-19 -9.08,-5.51 -2.41,-1.48 -0.62,-0.39 c -0.15,-0.13 -0.21,-0.18 -0.15,-0.19 z"
       style="fill:#263238"
       id="path65" />
    <path
       d="m 338.78,381.63 c 0,0 -0.11,-0.15 -0.26,-0.47 l -0.65,-1.39 -2.29,-5.15 c -1.9,-4.36 -4.59,-10.36 -7.34,-17.1 a 47.27,47.27 0 0 1 -2.87,-9.87 17.09,17.09 0 0 1 0.36,-8.37 14.46,14.46 0 0 1 3,-4.8 c 0.46,-0.49 0.81,-0.87 1.07,-1.11 a 2.65,2.65 0 0 1 0.41,-0.35 c 0,0 -0.48,0.57 -1.32,1.59 a 15.07,15.07 0 0 0 -2.79,4.79 16.9,16.9 0 0 0 -0.23,8.18 48.92,48.92 0 0 0 2.87,9.75 c 2.74,6.71 5.38,12.75 7.2,17.15 0.88,2.15 1.6,3.91 2.14,5.21 0.22,0.58 0.41,1.05 0.56,1.43 a 2.85,2.85 0 0 1 0.14,0.51 z"
       style="fill:#263238"
       id="path67" />
    <path
       d="m 398.66,362 a 3.84,3.84 0 0 1 -0.31,-0.63 c -0.19,-0.46 -0.45,-1.06 -0.77,-1.82 l -2.79,-6.71 c -2.36,-5.67 -5.64,-13.49 -9.41,-22.06 -3.77,-8.57 -7.34,-16.29 -9.82,-21.88 -1.33,-2.73 -3.38,-4.45 -5.05,-4.72 a 6.29,6.29 0 0 0 -1.94,0 5.54,5.54 0 0 1 -0.69,0.09 l 0.17,-0.07 c 0.11,0 0.28,-0.08 0.5,-0.12 a 5.72,5.72 0 0 1 2,-0.08 c 1.78,0.22 3.95,2 5.35,4.75 2.58,5.58 6.22,13.24 10,21.84 3.78,8.6 7,16.42 9.27,22.13 1.14,2.85 2,5.17 2.64,6.78 0.28,0.77 0.51,1.38 0.68,1.86 a 4.4,4.4 0 0 1 0.17,0.64 z"
       style="fill:#263238"
       id="path69" />
    <path
       d="m 401,354.93 c -0.09,0 -0.44,-1.24 -1.21,-3.2 a 38,38 0 0 0 -3.86,-7.21 37.54,37.54 0 0 0 -5.38,-6.17 c -1.55,-1.42 -2.61,-2.19 -2.56,-2.27 a 3.3,3.3 0 0 1 0.8,0.47 20.85,20.85 0 0 1 2,1.52 32.17,32.17 0 0 1 5.57,6.15 31.83,31.83 0 0 1 3.77,7.38 20.82,20.82 0 0 1 0.71,2.41 3.25,3.25 0 0 1 0.16,0.92 z"
       style="fill:#263238"
       id="path71" />
    <path
       d="m 312.13,390.14 a 5.19,5.19 0 0 1 -0.61,0.56 c -0.41,0.36 -1,0.89 -1.81,1.54 -1.58,1.32 -3.91,3.18 -6.89,5.37 a 107.33,107.33 0 0 1 -25.13,14 75.55,75.55 0 0 1 -15.36,4 63.39,63.39 0 0 1 -12.95,0.64 52.7,52.7 0 0 1 -8.66,-1.18 c -1,-0.2 -1.78,-0.45 -2.31,-0.58 a 7.46,7.46 0 0 1 -0.79,-0.25 4.37,4.37 0 0 1 0.82,0.14 c 0.53,0.1 1.3,0.32 2.32,0.49 a 57.29,57.29 0 0 0 8.63,1 64.79,64.79 0 0 0 12.87,-0.74 78,78 0 0 0 15.24,-4 112.44,112.44 0 0 0 25.11,-13.82 c 3,-2.14 5.35,-4 7,-5.23 l 1.87,-1.46 a 4.29,4.29 0 0 1 0.65,-0.48 z"
       style="fill:#263238"
       id="path73" />
    <g
       style="opacity:0.3"
       id="g77">
      <path
         d="m 310,391.91 c -12.39,6.26 -25.13,12.61 -38.93,14.07 -3.62,0.38 -7.29,0.42 -10.86,1.17 -3.57,0.75 -7.11,2.32 -9.38,5.17 -0.68,0.86 -1.24,2.11 -0.6,3 a 2.89,2.89 0 0 0 2.11,0.89 c 10.63,1.13 21.37,-1.83 30.93,-6.62 9.56,-4.79 18.1,-11.32 26.58,-17.83"
         id="path75" />
    </g>
    <g
       style="opacity:0.3"
       id="g81">
      <path
         d="m 325.84,349.29 c 1,8.69 -1.11,15.34 -1.31,24.08 -0.2,8.74 2.21,19.16 7.24,26.31 l 7,-18 c 0,0 -2.34,-6.11 -3.79,-9.13 a 161.93,161.93 0 0 1 -8.89,-22.47"
         id="path79" />
    </g>
    <g
       style="opacity:0.3"
       id="g85">
      <path
         d="m 168.33,399.42 c 5.33,2.23 11.55,0.82 16.14,-2.68 7.58,-5.77 12.3,-14.66 14.7,-23.88 2.4,-9.22 2.68,-18.86 2.83,-28.35 0.15,-9.49 0.13,-19.12 2,-28.46 0.18,-0.88 0.15,-2.12 -0.73,-2.3 -0.72,-0.15 -1.32,0.6 -1.59,1.29 -3.58,9.27 -5.29,24.88 -6.57,36 -1.35,11.75 -2.94,15.86 -6.67,25.65 -3.73,9.79 -9.81,17.5 -20.07,22.69"
         id="path83" />
    </g>
    <path
       d="m 369.59,307.43 a 2.39,2.39 0 0 1 0.28,0.61 9.21,9.21 0 0 1 0.46,1.86 21.22,21.22 0 0 1 -0.41,7 c -0.28,1.46 -0.65,3 -1.09,4.73 a 46.27,46.27 0 0 1 -1.69,5.32 38,38 0 0 1 -6.56,11 31.55,31.55 0 0 1 -10,7.88 24.87,24.87 0 0 1 -10.12,2.45 20,20 0 0 1 -6.95,-1.05 12.51,12.51 0 0 1 -1.77,-0.72 5.16,5.16 0 0 1 -0.59,-0.31 3,3 0 0 1 0.63,0.21 16.88,16.88 0 0 0 1.79,0.63 21.22,21.22 0 0 0 6.88,0.87 25,25 0 0 0 9.92,-2.51 31.63,31.63 0 0 0 9.84,-7.79 38.27,38.27 0 0 0 6.5,-10.79 44.49,44.49 0 0 0 1.72,-5.25 c 0.46,-1.67 0.85,-3.24 1.15,-4.69 a 22.42,22.42 0 0 0 0.57,-6.91 15.67,15.67 0 0 0 -0.56,-2.54 z"
       style="fill:#263238"
       id="path87" />
    <path
       d="m 356.69,266.16 -0.48,0.12 a 9.44,9.44 0 0 0 -1.38,0.39 12.24,12.24 0 0 0 -4.63,2.94 25.36,25.36 0 0 0 -4.93,7.2 c -1.51,3.06 -2.73,6.81 -4.86,10.6 a 20.11,20.11 0 0 1 -4.19,5.38 13.36,13.36 0 0 1 -6.67,3.11 28,28 0 0 1 -7.91,0 c -2.69,-0.3 -5.44,-0.77 -8.28,-0.89 a 23.65,23.65 0 0 0 -4.28,0.16 15,15 0 0 0 -4.15,1.27 20.15,20.15 0 0 0 -6.77,5.87 c -1.93,2.41 -3.67,5.07 -5.71,7.57 a 28.93,28.93 0 0 1 -3.39,3.53 18.79,18.79 0 0 1 -4.19,2.65 21.35,21.35 0 0 1 -9.61,1.92 22.86,22.86 0 0 1 -9.24,-2.29 19.26,19.26 0 0 1 -7.08,-5.85 46,46 0 0 1 -4.17,-7.76 36.24,36.24 0 0 0 -4,-7.22 14,14 0 0 0 -2.79,-2.76 l -0.8,-0.54 -0.84,-0.45 a 13.9,13.9 0 0 0 -1.73,-0.75 26.17,26.17 0 0 0 -7.19,-1.08 c -2.35,-0.09 -4.62,-0.08 -6.78,-0.29 a 18.72,18.72 0 0 1 -6,-1.45 11.44,11.44 0 0 1 -4.35,-3.38 13.75,13.75 0 0 1 -2.94,-8.22 12.2,12.2 0 0 1 1.09,-5.44 8.6,8.6 0 0 1 0.7,-1.27 l 0.28,-0.41 c 0,0 -0.07,0.16 -0.23,0.44 a 8.82,8.82 0 0 0 -0.65,1.29 12.2,12.2 0 0 0 -1,5.38 13.64,13.64 0 0 0 3,8.05 11.2,11.2 0 0 0 4.26,3.26 18.68,18.68 0 0 0 5.91,1.38 c 2.14,0.2 4.41,0.18 6.77,0.26 a 26.24,26.24 0 0 1 7.31,1.07 14,14 0 0 1 1.79,0.77 l 0.87,0.46 0.83,0.56 a 14.61,14.61 0 0 1 2.89,2.83 36.65,36.65 0 0 1 4.11,7.31 45.54,45.54 0 0 0 4.13,7.67 18.83,18.83 0 0 0 6.91,5.68 22.31,22.31 0 0 0 9,2.23 20.8,20.8 0 0 0 9.37,-1.87 18.1,18.1 0 0 0 4.07,-2.58 29.3,29.3 0 0 0 3.33,-3.45 c 2,-2.48 3.75,-5.13 5.71,-7.57 a 20.58,20.58 0 0 1 6.95,-6 15.82,15.82 0 0 1 4.3,-1.31 25.69,25.69 0 0 1 4.37,-0.15 c 2.88,0.13 5.64,0.61 8.31,0.92 a 27.89,27.89 0 0 0 7.79,0.05 13,13 0 0 0 6.48,-3 19.85,19.85 0 0 0 4.13,-5.25 c 2.13,-3.74 3.37,-7.47 4.92,-10.55 a 25.54,25.54 0 0 1 5.05,-7.21 12,12 0 0 1 4.73,-2.9 7.81,7.81 0 0 1 1.41,-0.34 z"
       style="fill:#fafafa"
       id="path89" />
    <path
       d="m 327.76,355.12 -0.33,0.18 a 6.41,6.41 0 0 1 -1,0.42 5.83,5.83 0 0 1 -4.21,-0.3 45.17,45.17 0 0 1 -5.75,-3.55 c -2.19,-1.48 -4.47,-3.45 -7.28,-5.15 a 18.62,18.62 0 0 0 -4.7,-2 18.22,18.22 0 0 0 -5.52,-0.52 29.66,29.66 0 0 0 -11.73,3.52 105,105 0 0 0 -11.58,7.28 c -3.94,2.66 -8.17,5.37 -13.05,6.9 a 24.23,24.23 0 0 1 -14.67,-0.05 52.22,52.22 0 0 1 -12.43,-5.9 c -3.73,-2.3 -7.16,-4.65 -10.53,-6.58 a 44.78,44.78 0 0 0 -9.81,-4.4 24.56,24.56 0 0 0 -8.77,-1 18.58,18.58 0 0 0 -6.44,1.7 17.92,17.92 0 0 0 -4.65,3.3 1.7,1.7 0 0 1 0.25,-0.28 c 0.17,-0.18 0.43,-0.45 0.78,-0.79 a 16.25,16.25 0 0 1 3.53,-2.41 18.48,18.48 0 0 1 6.5,-1.81 24.69,24.69 0 0 1 8.9,0.91 45.18,45.18 0 0 1 9.93,4.41 c 3.39,1.93 6.84,4.27 10.56,6.55 a 51.84,51.84 0 0 0 12.33,5.82 23.69,23.69 0 0 0 14.36,0 c 4.79,-1.5 9,-4.17 12.92,-6.82 a 103.36,103.36 0 0 1 11.63,-7.3 30,30 0 0 1 11.92,-3.52 18.69,18.69 0 0 1 5.64,0.56 19.28,19.28 0 0 1 4.79,2.11 c 2.84,1.75 5.1,3.74 7.25,5.23 a 48.05,48.05 0 0 0 5.67,3.61 5.79,5.79 0 0 0 4.1,0.38 c 0.93,-0.27 1.37,-0.54 1.39,-0.5 z"
       style="fill:#fafafa"
       id="path91" />
    <path
       d="m 270.61,412.29 a 2.64,2.64 0 0 1 -0.45,-0.35 l -1.24,-1.09 -4.5,-4 a 79.57,79.57 0 0 0 -16.15,-11.43 41.5,41.5 0 0 0 -10.27,-3.54 32.3,32.3 0 0 0 -8.84,-0.56 26.5,26.5 0 0 0 -5.89,1.11 c -1.35,0.42 -2.08,0.72 -2.1,0.67 a 2.87,2.87 0 0 1 0.51,-0.25 15.46,15.46 0 0 1 1.53,-0.61 24.37,24.37 0 0 1 5.91,-1.29 31.69,31.69 0 0 1 9,0.46 40.34,40.34 0 0 1 10.38,3.59 74.09,74.09 0 0 1 16.16,11.62 c 1.89,1.71 3.38,3.14 4.4,4.13 l 1.17,1.16 a 2.78,2.78 0 0 1 0.38,0.38 z"
       style="fill:#fafafa"
       id="path93" />
    <path
       d="m 340.9,424.1 a 15.12,15.12 0 0 0 -1.87,-2.75 13.52,13.52 0 0 0 -8,-3.91 19.85,19.85 0 0 0 -6.24,0.06 29.49,29.49 0 0 0 -6.84,2.2 c -2.33,1 -4.7,2.29 -7.18,3.56 a 51.25,51.25 0 0 1 -7.93,3.44 35.11,35.11 0 0 1 -4.26,1.1 37.21,37.21 0 0 1 -4.25,0.5 18.15,18.15 0 0 1 -2.08,0.07 c -0.69,0 -1.37,0 -2,0 -1.35,-0.12 -2.67,-0.19 -3.93,-0.43 a 37.1,37.1 0 0 1 -12.83,-4.5 34.45,34.45 0 0 1 -7.3,-5.55 c -0.79,-0.75 -1.29,-1.43 -1.68,-1.85 a 6.3,6.3 0 0 1 -0.54,-0.68 5.86,5.86 0 0 1 0.62,0.61 c 0.41,0.39 0.94,1.05 1.74,1.77 a 36.27,36.27 0 0 0 7.34,5.38 37.27,37.27 0 0 0 12.72,4.34 c 1.25,0.23 2.56,0.3 3.88,0.41 0.67,0 1.34,0 2,0 a 17.65,17.65 0 0 0 2.05,-0.08 35.78,35.78 0 0 0 4.18,-0.5 33.7,33.7 0 0 0 4.2,-1.09 50.49,50.49 0 0 0 7.86,-3.4 c 2.48,-1.26 4.86,-2.52 7.22,-3.54 a 29.4,29.4 0 0 1 7,-2.19 20,20 0 0 1 6.37,0 13.38,13.38 0 0 1 8.08,4.14 l 0.49,0.59 a 5.48,5.48 0 0 1 0.37,0.57 4.48,4.48 0 0 1 0.52,0.92 7.11,7.11 0 0 1 0.29,0.81 z"
       style="fill:#fafafa"
       id="path95" />
    <path
       d="m 347.48,441.08 a 1.71,1.71 0 0 1 -0.37,0 l -1.07,-0.14 a 28.8,28.8 0 0 0 -4.13,-0.21 34.86,34.86 0 0 0 -6.49,0.83 48.16,48.16 0 0 0 -8.23,2.7 93.38,93.38 0 0 0 -9.43,4.68 c -3.3,1.85 -6.8,3.91 -10.59,5.89 a 60.32,60.32 0 0 1 -12.44,5 34.56,34.56 0 0 1 -14.36,0.64 56.73,56.73 0 0 1 -13.74,-4.28 c -4.27,-1.87 -8.24,-4 -12,-5.92 -7.5,-4 -14.59,-7.09 -20.87,-8.53 a 41.73,41.73 0 0 0 -8.58,-1.15 30.67,30.67 0 0 0 -6.5,0.59 23,23 0 0 0 -2.32,0.58 12.74,12.74 0 0 0 -1.66,0.56 l -1,0.37 -0.35,0.11 0.33,-0.16 1,-0.42 a 12.5,12.5 0 0 1 1.66,-0.61 21.51,21.51 0 0 1 2.32,-0.63 30.44,30.44 0 0 1 6.55,-0.68 41.48,41.48 0 0 1 8.66,1.08 c 6.33,1.41 13.48,4.46 21,8.47 3.8,1.95 7.77,4 12,5.88 a 56.8,56.8 0 0 0 13.63,4.23 34.19,34.19 0 0 0 14.14,-0.63 59.73,59.73 0 0 0 12.36,-4.96 c 3.78,-1.95 7.28,-4 10.61,-5.83 a 91.41,91.41 0 0 1 9.49,-4.65 49.22,49.22 0 0 1 8.31,-2.65 33.74,33.74 0 0 1 6.55,-0.74 26.57,26.57 0 0 1 4.15,0.3 l 1.06,0.2 z"
       style="fill:#fafafa"
       id="path97" />
    <path
       d="m 389.85,339.49 a 4.8,4.8 0 0 1 -0.49,0.62 17.16,17.16 0 0 0 -1.39,1.76 31.93,31.93 0 0 0 -3.73,7.35 c -1.27,3.25 -2.36,7.3 -4.22,11.57 a 25.75,25.75 0 0 1 -3.82,6.21 19.26,19.26 0 0 1 -6.2,4.82 27.79,27.79 0 0 1 -14.83,2.44 46.93,46.93 0 0 1 -12,-3 c -3.29,-1.25 -5.87,-2.45 -7.64,-3.28 l -2,-1 a 3.69,3.69 0 0 1 -0.69,-0.38 5.3,5.3 0 0 1 0.74,0.28 l 2.07,0.89 c 1.8,0.77 4.4,1.92 7.68,3.12 a 47.82,47.82 0 0 0 11.89,2.84 27.56,27.56 0 0 0 14.55,-2.43 18.68,18.68 0 0 0 6.05,-4.68 25.51,25.51 0 0 0 3.77,-6.1 c 1.87,-4.22 3,-8.26 4.32,-11.52 a 30,30 0 0 1 3.91,-7.33 13.94,13.94 0 0 1 1.47,-1.72 5.47,5.47 0 0 1 0.56,-0.46 z"
       style="fill:#fafafa"
       id="path99" />
    <path
       d="m 400.85,355 c -0.09,0 -0.18,-0.36 -0.5,-0.85 a 4.08,4.08 0 0 0 -3.92,-1.8 c -0.58,0.08 -0.93,0.25 -1,0.18 -0.07,-0.07 0.26,-0.35 0.89,-0.54 a 3.79,3.79 0 0 1 4.33,2 c 0.29,0.54 0.25,1.01 0.2,1.01 z"
       style="fill:#fafafa"
       id="path101" />
    <path
       d="m 398.82,348.41 a 3.69,3.69 0 0 1 0.74,0.26 9.16,9.16 0 0 1 1.92,1.21 12.44,12.44 0 0 1 4,7.2 19.88,19.88 0 0 1 0.12,5.75 48.4,48.4 0 0 1 -1.29,6.45 139.71,139.71 0 0 1 -4.31,14.43 46.9,46.9 0 0 1 -7.22,13.21 31.15,31.15 0 0 1 -9.42,7.87 26.39,26.39 0 0 1 -4.39,1.79 22.28,22.28 0 0 1 -3.5,0.72 l -1.3,0.12 h -1 -0.78 a 3.44,3.44 0 0 1 0.78,-0.07 l 0.95,-0.06 1.28,-0.16 a 23.58,23.58 0 0 0 3.44,-0.79 26.51,26.51 0 0 0 4.3,-1.85 31.34,31.34 0 0 0 9.23,-7.84 47,47 0 0 0 7.1,-13.09 146.07,146.07 0 0 0 4.29,-14.36 49.3,49.3 0 0 0 1.33,-6.39 19.6,19.6 0 0 0 -0.05,-5.64 12.42,12.42 0 0 0 -3.74,-7.1 11.23,11.23 0 0 0 -2.48,-1.66 z"
       style="fill:#fafafa"
       id="path103" />
    <path
       d="m 393,327 a 18.84,18.84 0 0 0 -4.54,0 18.51,18.51 0 0 0 -4.28,1.54 A 8.22,8.22 0 0 1 393,327 Z"
       style="fill:#fafafa"
       id="path105" />
    <path
       d="m 183.63,383.85 a 7.08,7.08 0 0 1 -2.46,0.68 11.75,11.75 0 0 1 -6.76,-1.47 17.52,17.52 0 0 1 -3.91,-2.83 24,24 0 0 1 -3.49,-4.3 c -2.17,-3.24 -3.95,-7.14 -6.49,-10.78 a 32.56,32.56 0 0 0 -9,-8.53 33.91,33.91 0 0 0 -9.31,-4.12 33.18,33.18 0 0 0 -6.8,-1.12 c -1.63,-0.09 -2.54,-0.07 -2.54,-0.12 a 3.44,3.44 0 0 1 0.66,-0.05 17.58,17.58 0 0 1 1.89,0 30.8,30.8 0 0 1 6.89,1 33.49,33.49 0 0 1 9.47,4.07 32.67,32.67 0 0 1 9.2,8.64 c 2.58,3.7 4.35,7.61 6.47,10.82 a 25,25 0 0 0 3.39,4.25 17,17 0 0 0 3.79,2.81 11.66,11.66 0 0 0 6.56,1.59 17.9,17.9 0 0 0 2.44,-0.54 z"
       style="fill:#fafafa"
       id="path107" />
    <path
       d="m 197,331.22 a 1.91,1.91 0 0 1 -0.55,0 l -1.59,-0.18 c -0.68,-0.08 -1.52,-0.19 -2.49,-0.39 -0.97,-0.2 -2.07,-0.36 -3.27,-0.68 -1.2,-0.32 -2.52,-0.62 -3.91,-1.07 -1.39,-0.45 -2.85,-0.95 -4.39,-1.51 a 66.14,66.14 0 0 1 -18.35,-10.7 c -1.25,-1.07 -2.45,-2.06 -3.48,-3.09 -1.03,-1.03 -2,-2 -2.85,-2.88 -0.85,-0.88 -1.57,-1.76 -2.21,-2.51 a 24.8,24.8 0 0 1 -1.56,-2 l -0.94,-1.29 a 2.08,2.08 0 0 1 -0.3,-0.47 2.77,2.77 0 0 1 0.38,0.41 l 1,1.22 c 0.43,0.54 1,1.19 1.63,1.92 0.63,0.73 1.37,1.58 2.25,2.44 0.88,0.86 1.8,1.85 2.88,2.82 1.08,0.97 2.25,2 3.49,3 A 68.94,68.94 0 0 0 181,326.91 c 1.52,0.57 3,1.14 4.35,1.55 1.35,0.41 2.68,0.81 3.87,1.12 1.19,0.31 2.28,0.54 3.24,0.75 0.96,0.21 1.78,0.37 2.47,0.48 l 1.56,0.28 a 2.21,2.21 0 0 1 0.51,0.13 z"
       style="fill:#fafafa"
       id="path109" />
    <path
       d="m 198.14,398.8 c -0.1,0 0.08,-1.39 -0.11,-3.6 a 24.57,24.57 0 0 0 -0.63,-3.84 29.93,29.93 0 0 0 -1.54,-4.49 28.91,28.91 0 0 0 -2.33,-4.15 21.43,21.43 0 0 0 -2.49,-3 c -1.58,-1.55 -2.8,-2.24 -2.74,-2.33 a 3.66,3.66 0 0 1 0.87,0.45 7.93,7.93 0 0 1 1,0.64 11.5,11.5 0 0 1 1.17,1 20,20 0 0 1 2.64,3 25.8,25.8 0 0 1 2.4,4.21 26.63,26.63 0 0 1 1.54,4.59 22.3,22.3 0 0 1 0.53,3.92 c 0,0.57 0,1.08 0,1.52 a 8.82,8.82 0 0 1 -0.09,1.15 3.31,3.31 0 0 1 -0.22,0.93 z"
       style="fill:#fafafa"
       id="path111" />
    <path
       d="m 304.89,369.28 a 1.56,1.56 0 0 1 -0.51,0 l -1.46,-0.06 -1.06,-0.06 c -0.38,0 -0.79,-0.1 -1.24,-0.16 a 28.17,28.17 0 0 1 -3,-0.51 l -1.74,-0.38 c -0.6,-0.14 -1.22,-0.36 -1.86,-0.54 -1.29,-0.35 -2.62,-0.89 -4,-1.43 A 44.58,44.58 0 0 1 274.09,355 a 41.88,41.88 0 0 1 -2.7,-3.31 c -0.39,-0.54 -0.79,-1.05 -1.13,-1.57 l -0.95,-1.51 c -0.63,-0.95 -1.06,-1.89 -1.49,-2.68 -0.2,-0.41 -0.4,-0.77 -0.56,-1.13 -0.16,-0.36 -0.29,-0.67 -0.41,-1 l -0.55,-1.36 a 1.54,1.54 0 0 1 -0.15,-0.48 2.46,2.46 0 0 1 0.25,0.44 l 0.63,1.31 0.45,1 c 0.17,0.34 0.39,0.7 0.6,1.09 0.45,0.78 0.9,1.7 1.55,2.62 l 1,1.48 c 0.34,0.51 0.76,1 1.15,1.54 0.77,1.08 1.73,2.12 2.7,3.25 a 49.63,49.63 0 0 0 7.27,6.38 50.69,50.69 0 0 0 8.44,4.71 c 1.39,0.54 2.69,1.1 4,1.46 0.63,0.19 1.24,0.41 1.83,0.56 l 1.72,0.41 c 1.09,0.3 2.11,0.42 3,0.58 0.44,0.07 0.85,0.16 1.23,0.2 l 1.05,0.11 1.45,0.15 a 2.28,2.28 0 0 1 0.42,0.03 z"
       style="fill:#263238"
       id="path113" />
    <path
       d="m 214.32,297.2 a 0.85,0.85 0 0 1 -0.06,0.27 l -0.22,0.78 c -0.21,0.72 -0.5,1.71 -0.88,3 -0.19,0.65 -0.41,1.36 -0.64,2.14 -0.23,0.78 -0.37,1.67 -0.58,2.6 -0.21,0.93 -0.43,1.93 -0.67,3 -0.24,1.07 -0.35,2.2 -0.55,3.38 -0.2,1.18 -0.37,2.43 -0.56,3.73 -0.19,1.3 -0.23,2.66 -0.36,4.07 -0.06,0.7 -0.12,1.42 -0.18,2.14 -0.06,0.72 -0.05,1.47 -0.08,2.22 0,1.51 -0.08,3 -0.13,4.64 a 163.09,163.09 0 0 0 1.51,20.59 A 205.27,205.27 0 0 0 215,370 c 0.83,3.07 1.56,6 2.4,8.7 0.41,1.35 0.8,2.66 1.18,3.92 0.38,1.26 0.8,2.44 1.18,3.58 0.72,2.29 1.47,4.34 2.11,6.13 0.64,1.79 1.2,3.35 1.69,4.6 0.49,1.25 0.83,2.2 1.1,2.9 l 0.27,0.76 a 0.75,0.75 0 0 1 0.07,0.27 1.85,1.85 0 0 1 -0.12,-0.25 c -0.09,-0.19 -0.19,-0.44 -0.32,-0.74 -0.29,-0.69 -0.68,-1.65 -1.19,-2.86 -0.51,-1.21 -1.12,-2.78 -1.77,-4.58 -0.65,-1.8 -1.44,-3.82 -2.19,-6.11 l -1.22,-3.58 c -0.38,-1.26 -0.78,-2.57 -1.2,-3.92 -0.87,-2.7 -1.61,-5.63 -2.46,-8.7 a 199.24,199.24 0 0 1 -4.07,-20.32 158.43,158.43 0 0 1 -1.48,-20.66 c 0,-1.59 0.11,-3.15 0.16,-4.66 0,-0.75 0,-1.5 0.08,-2.23 0.08,-0.73 0.14,-1.44 0.2,-2.15 q 0.21,-2.11 0.39,-4.08 l 0.6,-3.74 c 0.21,-1.19 0.33,-2.33 0.59,-3.38 l 0.71,-3 c 0.22,-0.93 0.43,-1.79 0.62,-2.59 l 0.69,-2.14 c 0.41,-1.25 0.74,-2.23 1,-2.94 l 0.27,-0.76 a 1,1 0 0 1 0.03,-0.27 z"
       style="fill:#263238"
       id="path115" />
    <path
       d="m 265.42,272.52 a 16.4,16.4 0 0 1 3.77,-10.35 c 0.13,0.09 -1.26,2.16 -2.29,5 -1.03,2.84 -1.32,5.37 -1.48,5.35 z"
       style="fill:#263238"
       id="path117" />
    <path
       d="m 249.74,266.39 a 13.51,13.51 0 0 1 6.74,-7.53 c 0.09,0.14 -1.86,1.37 -3.71,3.46 -1.85,2.09 -2.89,4.15 -3.03,4.07 z"
       style="fill:#263238"
       id="path119" />
    <path
       d="m 283.64,274 a 48.27,48.27 0 0 1 -0.41,-5.18 49,49 0 0 1 -0.38,-5.18 18.41,18.41 0 0 1 0.9,5.14 17.56,17.56 0 0 1 -0.11,5.22 z"
       style="fill:#263238"
       id="path121" />
    <path
       d="M 304.63,271.69 A 15.35,15.35 0 0 0 301,260.88 c 0,-0.05 0.59,0.35 1.3,1.18 a 11.77,11.77 0 0 1 2.06,3.71 11.61,11.61 0 0 1 0.64,4.23 4.12,4.12 0 0 1 -0.37,1.69 z"
       style="fill:#263238"
       id="path123" />
    <g
       style="opacity:0.3"
       id="g127">
      <path
         d="m 312,257.15 -5.34,1.78 c 3.06,18 7,39.63 10.1,57.63 0.9,5.27 1.88,10.75 5,15.08 3.31,4.56 8.82,7.55 10.85,12.8 -6.4,-28.5 -12.97,-59.11 -20.61,-87.29 z"
         id="path125" />
    </g>
    <path
       d="m 215.51,200.33 c 0,0 0.16,-4.68 0.07,-8.84 a 3.09,3.09 0 0 1 3.1,-3.15 H 253 l 5.71,-11.84 a 6,6 0 0 1 5.07,-2.76 h 15.73 a 6,6 0 0 1 4.88,2.49 l 6.06,8.37 11.16,1.86 a 4.33,4.33 0 0 1 3.61,4.07 l 2.09,47.63 h -91.8 z"
       style="fill:#c060a1"
       id="path129" />
    <rect
       x="264.75"
       y="176.17999"
       width="12.56"
       height="5.9400001"
       style="fill:#e0e0e0"
       id="rect131" />
    <circle
       cx="269.42001"
       cy="209.8"
       r="20.049999"
       style="fill:#c060a1"
       id="circle133" />
    <circle
       cx="269.42001"
       cy="209.8"
       r="20.049999"
       style="opacity:0.6"
       id="circle135" />
    <circle
       cx="269.42001"
       cy="209.8"
       r="16.049999"
       style="fill:#263238"
       id="circle137" />
    <path
       d="m 291,209.8 a 2,2 0 0 1 0,-0.35 l -0.08,-1 c 0,-0.23 0,-0.48 0,-0.75 0,-0.27 -0.09,-0.58 -0.14,-0.9 a 16.65,16.65 0 0 0 -0.46,-2.22 20.65,20.65 0 0 0 -2.4,-5.69 21.35,21.35 0 0 0 -25.63,-9.08 21.93,21.93 0 0 0 -2.78,1.22 23.57,23.57 0 0 0 -2.61,1.68 24.42,24.42 0 0 0 -2.41,2.05 24.79,24.79 0 0 0 -2.09,2.47 20.84,20.84 0 0 0 -3,5.87 21,21 0 0 0 0,13.43 20.59,20.59 0 0 0 3,5.87 23.7,23.7 0 0 0 2.09,2.47 23.14,23.14 0 0 0 2.41,2.05 19.79,19.79 0 0 0 5.39,2.91 21.38,21.38 0 0 0 25.63,-9.09 20.65,20.65 0 0 0 2.4,-5.69 16.53,16.53 0 0 0 0.46,-2.21 c 0.05,-0.33 0.11,-0.63 0.14,-0.9 0.03,-0.27 0,-0.53 0,-0.75 0,-0.43 0.06,-0.77 0.08,-1 a 2,2 0 0 1 0,-0.35 1.88,1.88 0 0 1 0,0.35 c 0,0.26 0,0.59 0,1 0,0.23 0,0.49 0,0.76 0,0.27 -0.08,0.58 -0.12,0.91 a 16.36,16.36 0 0 1 -0.41,2.24 20.46,20.46 0 0 1 -2.35,5.79 21.68,21.68 0 0 1 -14.61,10.3 21.73,21.73 0 0 1 -11.43,-0.91 23,23 0 0 1 -2.85,-1.24 22.53,22.53 0 0 1 -2.68,-1.72 24.18,24.18 0 0 1 -2.47,-2.09 23.64,23.64 0 0 1 -2.14,-2.53 20.89,20.89 0 0 1 -3.12,-6 21.51,21.51 0 0 1 0,-13.76 21.06,21.06 0 0 1 3.12,-6 20,20 0 0 1 4.62,-4.62 19.73,19.73 0 0 1 5.52,-2.95 21.74,21.74 0 0 1 11.43,-0.92 21.76,21.76 0 0 1 14.49,10.27 20.58,20.58 0 0 1 2.35,5.79 16.21,16.21 0 0 1 0.41,2.25 c 0,0.32 0.1,0.63 0.12,0.9 0.02,0.27 0,0.53 0,0.76 0,0.43 0,0.77 0,1 a 1.88,1.88 0 0 1 0.12,0.38 z"
       style="fill:#263238"
       id="path139" />
    <path
       d="m 263.73,220.9 c -0.11,0.28 -2.06,-0.15 -4.24,-2.38 a 13,13 0 0 1 -2.84,-4.59 12.69,12.69 0 0 1 2.26,-12.75 12.86,12.86 0 0 1 4.24,-3.34 c 2.81,-1.35 4.79,-1.09 4.8,-0.79 0.01,0.3 -1.68,0.82 -3.87,2.37 a 14.52,14.52 0 0 0 -3.29,3.24 11.79,11.79 0 0 0 -1.86,10.52 14.32,14.32 0 0 0 2,4.17 c 1.51,2.21 3.01,3.2 2.8,3.55 z"
       style="fill:#e0e0e0"
       id="path141" />
    <path
       d="m 252.16,191 a 6.86,6.86 0 0 1 -1.25,0.62 15.57,15.57 0 0 1 -1.51,0.61 c -0.59,0.22 -1.27,0.48 -2,0.69 a 41.13,41.13 0 0 1 -5.47,1.29 49.49,49.49 0 0 1 -6.86,0.6 50.52,50.52 0 0 1 -6.87,-0.46 41,41 0 0 1 -5.5,-1.18 21.18,21.18 0 0 1 -2.06,-0.65 15.22,15.22 0 0 1 -1.52,-0.57 6.64,6.64 0 0 1 -1.26,-0.58 7,7 0 0 1 1.33,0.39 c 0.42,0.15 0.93,0.32 1.54,0.49 0.61,0.17 1.29,0.4 2.07,0.57 a 46.7,46.7 0 0 0 5.46,1.05 48.84,48.84 0 0 0 13.59,-0.13 46.71,46.71 0 0 0 5.45,-1.17 c 0.77,-0.19 1.45,-0.43 2.05,-0.62 0.6,-0.19 1.11,-0.36 1.53,-0.52 a 6.91,6.91 0 0 1 1.28,-0.43 z"
       style="fill:#263238"
       id="path143" />
    <path
       d="m 252.08,228 a 3.62,3.62 0 0 1 0.19,0.79 6,6 0 0 1 -0.09,2.35 7.15,7.15 0 0 1 -1.74,3.29 6.94,6.94 0 0 1 -4.42,2.12 c -1.84,0.25 -3.84,0 -6,0.13 -2.16,0.13 -4.39,0.36 -6.79,0.51 a 23.55,23.55 0 0 1 -7.56,-0.49 11.67,11.67 0 0 1 -6.79,-4.4 9.85,9.85 0 0 1 -1.51,-3.9 26.3,26.3 0 0 1 -0.32,-4 c 0,-2.61 -0.1,-5.13 -0.15,-7.53 -0.09,-4.79 -0.16,-9.11 -0.22,-12.75 -0.06,-3.64 -0.08,-6.52 -0.11,-8.6 v -2.34 a 4.29,4.29 0 0 1 0,-0.82 4.77,4.77 0 0 1 0.07,0.82 c 0,0.58 0.06,1.36 0.1,2.33 0.07,2.09 0.16,5 0.27,8.6 0.11,3.6 0.21,8 0.34,12.75 0.06,2.4 0.12,4.92 0.18,7.53 0.06,2.61 0.21,5.37 1.75,7.62 a 11.06,11.06 0 0 0 6.49,4.2 23.05,23.05 0 0 0 7.4,0.51 c 2.38,-0.14 4.66,-0.4 6.8,-0.46 2.14,-0.06 4.14,0.16 5.92,-0.06 a 6.73,6.73 0 0 0 4.26,-2 7,7 0 0 0 1.75,-3.13 6.61,6.61 0 0 0 0.19,-2.29 7.69,7.69 0 0 1 -0.01,-0.78 z"
       style="fill:#263238"
       id="path145" />
    <path
       d="m 234.25,230.05 c -0.15,0 -0.26,-6.84 -0.26,-15.28 0,-8.44 0.11,-15.27 0.26,-15.27 0.15,0 0.26,6.84 0.26,15.27 0,8.43 -0.12,15.28 -0.26,15.28 z"
       style="fill:#263238"
       id="path147" />
    <path
       d="m 227.48,230.05 c -0.15,0 -0.26,-6.84 -0.26,-15.28 0,-8.44 0.11,-15.27 0.26,-15.27 0.15,0 0.26,6.84 0.26,15.27 0,8.43 -0.12,15.28 -0.26,15.28 z"
       style="fill:#263238"
       id="path149" />
    <path
       d="m 239.73,229.48 c -0.15,0 -0.26,-6.75 -0.26,-15.06 0,-8.31 0.11,-15.06 0.26,-15.06 0.15,0 0.26,6.74 0.26,15.06 0,8.32 -0.12,15.06 -0.26,15.06 z"
       style="fill:#263238"
       id="path151" />
    <path
       d="m 304.91,194 c 0,0 -0.06,-0.32 -0.3,-0.81 a 3.61,3.61 0 0 0 -1.67,-1.53 8.43,8.43 0 0 0 -3.42,-0.55 l -4.37,-0.12 c -3.1,-0.1 -5.9,-0.22 -7.93,-0.34 a 19,19 0 0 1 -3.28,-0.29 21.36,21.36 0 0 1 3.29,-0.07 c 2,0 4.84,0.08 7.94,0.18 l 4.37,0.16 a 8.4,8.4 0 0 1 3.56,0.7 3.47,3.47 0 0 1 1.69,1.78 c 0.21,0.57 0.15,0.89 0.12,0.89 z"
       style="fill:#263238"
       id="path153" />
    <polygon
       points="200.02,307.08 210.31,244.66 189.98,230.91 165.64,286.66 "
       style="fill:#ffbe9d"
       id="polygon155" />
    <path
       d="m 189.85,205.55 17.2,-25.91 a 7.49,7.49 0 0 1 9,-2.79 l 18.26,7.39 c 0,0 -0.24,5.68 -5.2,4.92 C 224.15,188.4 214,186.43 214,186.43 l -4.56,5.51 z"
       style="fill:#ffbe9d"
       id="path157" />
    <path
       d="m 234.58,213.79 -7.52,-19.54 a 5.64,5.64 0 0 0 -5.89,-3.59 l -23.1,2.52 -8.22,12.37 a 4.77,4.77 0 0 0 -0.79,2.82 l 1.34,32.94 14,17.37 6.1,-14 v 0 a 9.57,9.57 0 0 0 5.23,-11 l -1.82,-7.18 7.1,-2.42 c 0,0 -0.63,7.85 2.88,7.75 3.51,-0.1 5.31,-13.83 5.31,-13.83 0,0 6.52,-1.26 5.38,-4.21 z"
       style="fill:#ffbe9d"
       id="path159" />
    <path
       d="m 213.92,226.5 c 0,0 -0.23,-0.16 -0.55,-0.54 a 3.9,3.9 0 0 1 -0.91,-1.91 2.87,2.87 0 0 1 0.23,-1.5 3.31,3.31 0 0 1 1.12,-1.33 12.71,12.71 0 0 1 3.42,-1.7 h 0.08 l 0.08,0.51 c -2.64,0 -5,-0.07 -6.76,-0.13 a 15.57,15.57 0 0 1 -2.8,-0.2 14.31,14.31 0 0 1 2.8,-0.17 c 1.73,0 4.12,0 6.77,0 h 1.6 l -1.49,0.5 h -0.08 a 13.32,13.32 0 0 0 -3.3,1.6 2.69,2.69 0 0 0 -1.27,2.4 4.18,4.18 0 0 0 0.72,1.83 c 0.22,0.39 0.42,0.62 0.34,0.64 z"
       style="fill:#eb996e"
       id="path161" />
    <path
       d="m 221,224.08 c 0,0 0.39,-0.26 1,-0.82 a 4.17,4.17 0 0 0 0.86,-1.2 5.71,5.71 0 0 0 0.45,-1.91 22.2,22.2 0 0 0 -0.26,-5.2 30.51,30.51 0 0 0 -0.66,-3 4.56,4.56 0 0 0 -1.67,-2.62 5.67,5.67 0 0 0 -3.08,-0.63 l -3.11,-0.15 -5.27,-0.28 -3.56,-0.24 a 6.21,6.21 0 0 1 -1.3,-0.16 6.82,6.82 0 0 1 1.31,0 l 3.56,0.07 5.28,0.17 3.11,0.12 c 0.54,0 1.09,0 1.67,0.1 a 3.45,3.45 0 0 1 1.69,0.62 5,5 0 0 1 1.86,2.91 28.51,28.51 0 0 1 0.64,3.07 20.68,20.68 0 0 1 0.15,5.32 5.8,5.8 0 0 1 -0.55,2 4.1,4.1 0 0 1 -1,1.22 4.15,4.15 0 0 1 -0.82,0.54 1,1 0 0 1 -0.3,0.07 z"
       style="fill:#eb996e"
       id="path163" />
    <path
       d="m 204.62,201.25 a 9,9 0 0 1 1.52,0 l 4.13,0.07 6.14,0.17 3.63,0.12 c 0.63,0 1.26,0 1.92,0.09 a 4.68,4.68 0 0 1 2,0.57 4.38,4.38 0 0 1 1.42,1.52 c 0.35,0.57 0.63,1.14 0.92,1.71 a 29.64,29.64 0 0 1 1.45,3.34 23.82,23.82 0 0 1 1.41,6 18.25,18.25 0 0 1 -0.05,4.15 8.74,8.74 0 0 1 -0.18,1.12 c 0,0.25 -0.09,0.38 -0.11,0.38 a 30.53,30.53 0 0 0 0,-5.61 24.68,24.68 0 0 0 -1.49,-5.89 32.94,32.94 0 0 0 -1.45,-3.28 7.38,7.38 0 0 0 -2.16,-3 8.17,8.17 0 0 0 -3.67,-0.6 l -3.62,-0.15 -6.13,-0.28 -4.13,-0.24 a 8.21,8.21 0 0 1 -1.55,-0.19 z"
       style="fill:#eb996e"
       id="path165" />
    <path
       d="m 219.18,201.69 a 12.86,12.86 0 0 1 0.78,-5.11 6.58,6.58 0 0 1 -0.13,2.6 6.73,6.73 0 0 1 -0.65,2.51 z"
       style="fill:#eb996e"
       id="path167" />
    <path
       d="m 222.39,190.63 a 3.94,3.94 0 0 1 -0.93,0.22 c -0.6,0.11 -1.48,0.25 -2.56,0.39 -2.18,0.3 -5.19,0.56 -8.49,1 -0.82,0.11 -1.64,0.2 -2.4,0.33 a 19.15,19.15 0 0 0 -2.17,0.52 15.5,15.5 0 0 0 -3.5,1.41 7.88,7.88 0 0 0 -2.45,2.44 2.41,2.41 0 0 1 0.39,-0.89 6.59,6.59 0 0 1 1.86,-1.86 15,15 0 0 1 3.56,-1.56 17.56,17.56 0 0 1 2.22,-0.56 c 0.79,-0.15 1.6,-0.24 2.43,-0.34 3.32,-0.42 6.33,-0.62 8.51,-0.82 a 26,26 0 0 1 3.53,-0.28 z"
       style="fill:#eb996e"
       id="path169" />
    <path
       d="m 213.08,182.73 c 0.14,0 0.34,0.79 0.58,1.78 0.24,0.99 0.44,1.8 0.3,1.85 -0.14,0.05 -0.55,-0.7 -0.8,-1.73 -0.25,-1.03 -0.22,-1.89 -0.08,-1.9 z"
       style="fill:#eb996e"
       id="path171" />
    <path
       d="m 220.25,178.54 a 5.84,5.84 0 0 1 1.1,0.33 c 0.71,0.24 1.73,0.61 3,1.11 2.56,1 6.15,2.47 10.31,4.26 l 0.15,0.06 v 0.16 a 5.12,5.12 0 0 1 -1.46,3.63 4.94,4.94 0 0 1 -3.93,1.34 c -1.56,-0.07 -3,-0.43 -4.41,-0.62 -1.41,-0.19 -2.79,-0.44 -4.1,-0.67 -1.31,-0.23 -2.55,-0.49 -3.71,-0.78 l -3.24,-0.74 0.19,-0.07 -3.63,4.32 c -0.41,0.46 -0.74,0.84 -1,1.16 a 2.58,2.58 0 0 1 -0.38,0.38 c 0,0 0.08,-0.17 0.29,-0.45 l 0.93,-1.23 3.5,-4.42 0.07,-0.09 h 0.12 l 3.26,0.69 c 1.15,0.27 2.39,0.51 3.69,0.73 l 4.09,0.65 c 1.43,0.18 2.89,0.54 4.36,0.6 a 4.48,4.48 0 0 0 3.55,-1.18 4.67,4.67 0 0 0 1.33,-3.26 l 0.15,0.22 c -4.14,-1.83 -7.71,-3.36 -10.23,-4.43 l -3,-1.24 a 7.62,7.62 0 0 1 -1,-0.46 z"
       style="fill:#eb996e"
       id="path173" />
    <path
       d="m 370,309.43 -31,-63.82 -32.47,-50.77 a 19.27,19.27 0 0 0 -13,-8.61 c -8,-1.35 -19.41,-2.88 -23.79,-1.54 -4.69,1.43 -1.31,4.68 -1.31,4.68 0,0 5.22,1.07 12,2.33 a 10.73,10.73 0 0 1 7.18,4.9 l 1.56,2.51 c 3.65,5.89 4.06,10.36 4.92,19.45 v 4.9 c -0.84,4.47 -8.14,7.44 -15,7.61 a 77.16,77.16 0 0 0 -11.71,1.21 H 269 a 18,18 0 0 0 -13.16,4.57 7.58,7.58 0 0 0 -2.18,2.94 3.65,3.65 0 0 0 0.43,3.51 4.15,4.15 0 0 0 4.23,1 31.78,31.78 0 0 0 4.21,-1.81 c 5.21,-2.18 11.18,-0.8 16.54,1 5.36,1.8 10.86,3.95 16.47,3.26 3.41,-0.42 7.28,-1.79 10,0.31 l 3.24,3.06 a 21.66,21.66 0 0 1 3.35,8.64 v 0 l 21.07,88.6 c 7.56,1.23 15.36,0.33 24.19,-6.6 8.28,-8.91 13.24,-20.66 12.61,-31.33 z"
       style="fill:#ffbe9d"
       id="path175" />
    <path
       d="m 299.48,205.26 c 0,0 -1.29,-13.24 -2,-14.41 -0.71,-1.17 -14.93,-7.26 -13.69,-9.2 1.24,-1.94 5,-0.33 7.83,1 2.83,1.33 10.3,4.62 12.07,6.64 1.77,2.02 4.66,14.05 4.66,14.05 z"
       style="fill:#ffbe9d"
       id="path177" />
    <path
       d="m 283.82,181.65 c 0,0 0.11,0.06 0.3,0.22 l 0.8,0.69 3,2.7 v 0 c 1.84,1 4.19,2.24 6.9,3.76 l 2.09,1.21 c 0.18,0.11 0.36,0.21 0.54,0.34 a 1.28,1.28 0 0 1 0.5,0.53 5.12,5.12 0 0 1 0.42,1.29 36,36 0 0 1 0.56,5.54 v -0.06 c 0.94,3.24 1.86,6.81 2.75,10.53 2.19,9.33 3.87,17.92 3.95,24.23 a 17.19,17.19 0 0 0 1.73,7.11 13.62,13.62 0 0 0 1.56,2.21 l -0.14,-0.1 a 4.06,4.06 0 0 1 -0.38,-0.37 9,9 0 0 1 -1.22,-1.64 16.72,16.72 0 0 1 -1.91,-7.18 c -0.18,-6.3 -1.91,-14.81 -4.1,-24.14 -0.88,-3.71 -1.79,-7.28 -2.72,-10.52 v -0.06 a 34.55,34.55 0 0 0 -0.51,-5.45 5.09,5.09 0 0 0 -0.36,-1.18 c -0.12,-0.3 -0.54,-0.48 -0.88,-0.71 l -2.07,-1.22 -6.82,-3.88 v 0 l -2.94,-2.79 -0.76,-0.75 a 1.61,1.61 0 0 1 -0.29,-0.31 z"
       style="fill:#eb996e"
       id="path179" />
    <path
       d="m 293.32,203.7 a 5.42,5.42 0 0 1 0.05,1.23 c 0,0.79 0,1.93 0,3.33 a 28.93,28.93 0 0 0 0.51,4.88 14.18,14.18 0 0 0 2.3,5.45 41.83,41.83 0 0 0 4.1,4.4 c 1.33,1.31 2.57,2.44 3.52,3.52 a 4.08,4.08 0 0 1 0.95,1.71 6.82,6.82 0 0 1 0.13,1.46 5.29,5.29 0 0 1 0,1.22 5.64,5.64 0 0 1 -0.15,-1.21 7.44,7.44 0 0 0 -0.21,-1.4 3.85,3.85 0 0 0 -0.95,-1.54 c -1,-1 -2.22,-2.12 -3.57,-3.41 a 38.42,38.42 0 0 1 -4.19,-4.44 14.4,14.4 0 0 1 -2.35,-5.66 27.38,27.38 0 0 1 -0.41,-5 c 0,-1.42 0.08,-2.56 0.15,-3.35 a 5.83,5.83 0 0 1 0.12,-1.19 z"
       style="fill:#eb996e"
       id="path181" />
    <path
       d="m 270.65,237.57 a 9,9 0 0 0 -0.29,-2.18 c -0.41,-1.13 -1.29,-1.69 -1.21,-1.82 0.08,-0.13 0.3,0 0.67,0.26 a 3.12,3.12 0 0 1 1.17,3.1 c -0.11,0.44 -0.28,0.66 -0.34,0.64 z"
       style="fill:#eb996e"
       id="path183" />
    <path
       d="m 294.05,225.62 c 0,0 -0.12,0.23 -0.41,0.58 a 11.82,11.82 0 0 1 -1.38,1.37 17.44,17.44 0 0 1 -5.53,3.21 17.65,17.65 0 0 1 -6.32,1 12.83,12.83 0 0 1 -1.93,-0.19 2.17,2.17 0 0 1 -0.69,-0.19 c 0,-0.09 1,0.05 2.63,0 A 19.61,19.61 0 0 0 292,227.29 c 1.3,-0.99 2,-1.73 2.05,-1.67 z"
       style="fill:#eb996e"
       id="path185" />
    <path
       d="m 297.61,207.5 a 8.77,8.77 0 0 1 -0.93,-1.27 l -2.4,-3.57 -3.49,-5.34 -2.05,-3.16 a 12.66,12.66 0 0 0 -2.4,-3.12 5.73,5.73 0 0 0 -3.7,-0.85 c -1.29,0 -2.57,0.06 -3.78,0 a 37.12,37.12 0 0 1 -6.34,-0.9 33,33 0 0 1 -4.13,-1.26 q -0.72,-0.27 -1.08,-0.45 c -0.25,-0.11 -0.37,-0.17 -0.36,-0.19 a 12.28,12.28 0 0 1 1.51,0.45 c 1,0.3 2.37,0.72 4.14,1.09 a 39.94,39.94 0 0 0 6.28,0.78 c 1.2,0.05 2.44,0 3.75,0 a 6.17,6.17 0 0 1 4,0.95 12.63,12.63 0 0 1 2.51,3.25 c 0.7,1.1 1.38,2.16 2,3.18 1.27,2 2.42,3.83 3.4,5.4 l 2.26,3.66 a 8.89,8.89 0 0 1 0.81,1.35 z"
       style="fill:#eb996e"
       id="path187" />
    <path
       d="m 319.6,289 c 0,0 -0.07,-0.19 -0.17,-0.59 -0.1,-0.4 -0.26,-1 -0.47,-1.75 -0.4,-1.56 -1,-3.84 -1.74,-6.8 -1.51,-6 -3.7,-14.62 -6.45,-25.51 v 0 a 15.12,15.12 0 0 0 -2,-3.95 11,11 0 0 0 -3.44,-3.1 v 0 a 6,6 0 0 0 -1.61,-0.82 7.5,7.5 0 0 0 -1.84,-0.27 20.72,20.72 0 0 0 -3.87,0.42 29.42,29.42 0 0 1 -4.06,0.53 21.49,21.49 0 0 1 -4.22,-0.28 52.48,52.48 0 0 1 -8.49,-2.3 57.88,57.88 0 0 0 -8.86,-2.49 17.94,17.94 0 0 0 -9.43,0.58 c -1.52,0.54 -2.92,1.51 -4.6,2 a 5.56,5.56 0 0 1 -2.63,0.08 3.33,3.33 0 0 1 -2.19,-1.53 3.88,3.88 0 0 1 -0.39,-2.67 5.58,5.58 0 0 1 1.19,-2.41 15.87,15.87 0 0 1 4.1,-3.42 18.3,18.3 0 0 1 10.48,-2.53 v 0.51 h -1.62 v -0.5 c 1.43,-0.18 3,-0.53 4.5,-0.7 1.5,-0.17 3.08,-0.33 4.65,-0.42 1.57,-0.09 3.14,-0.07 4.68,-0.25 a 25.22,25.22 0 0 0 4.62,-0.93 18.44,18.44 0 0 0 4.35,-1.89 8.17,8.17 0 0 0 3.25,-3.32 6.09,6.09 0 0 0 0.37,-1.09 v -4.85 l -0.11,-1.23 -0.25,-2.47 a 45.11,45.11 0 0 0 -1.9,-10.23 38.89,38.89 0 0 0 -4.89,-8.93 10.45,10.45 0 0 0 -3.87,-3 21,21 0 0 0 -4.79,-1.22 l -9.68,-1.87 h -0.08 l -0.05,-0.05 a 5.13,5.13 0 0 1 -1,-1.38 2.5,2.5 0 0 1 -0.2,-1.71 2.58,2.58 0 0 1 1.11,-1.46 c 0.24,-0.15 0.49,-0.27 0.73,-0.39 l 0.77,-0.28 a 21.83,21.83 0 0 1 6.26,-0.51 111.27,111.27 0 0 1 12,1.18 l -0.16,0.44 a 19.09,19.09 0 0 1 -3.64,-2.58 1.68,1.68 0 0 1 -0.57,-1.09 0.7,0.7 0 0 1 0.11,-0.38 l 0.19,-0.24 a 2,2 0 0 1 0.46,-0.4 3.54,3.54 0 0 1 2.25,-0.29 16.8,16.8 0 0 1 4.07,1.36 l 3.77,1.76 a 77.93,77.93 0 0 1 7.17,3.7 15.26,15.26 0 0 1 1.63,1.13 6.8,6.8 0 0 1 0.74,0.69 4.79,4.79 0 0 1 0.53,0.85 28.47,28.47 0 0 1 1.41,3.55 v 0 c 0.71,1 1.33,1.94 2,2.91 l 1.83,2.88 3.45,5.51 6.48,10.18 10.43,16.4 6.64,10.42 1.72,2.74 c 0.38,0.62 0.56,0.94 0.56,0.94 0,0 -0.22,-0.3 -0.62,-0.91 -0.4,-0.61 -1,-1.53 -1.76,-2.7 l -6.71,-10.39 -10.51,-16.34 -6.52,-10.16 -3.55,-5.53 -1.84,-2.87 c -0.62,-1 -1.24,-2 -1.94,-2.89 v 0 0 a 26.69,26.69 0 0 0 -1.39,-3.49 4.37,4.37 0 0 0 -0.49,-0.77 5.13,5.13 0 0 0 -0.68,-0.63 14.73,14.73 0 0 0 -1.58,-1.09 78.33,78.33 0 0 0 -7.14,-3.67 l -3.77,-1.74 a 16,16 0 0 0 -3.95,-1.32 3,3 0 0 0 -1.94,0.23 c -0.11,0.11 -0.27,0.17 -0.35,0.31 l -0.15,0.18 a 0.37,0.37 0 0 0 0,0.14 c 0,0.22 0.23,0.52 0.45,0.76 a 19.34,19.34 0 0 0 3.54,2.49 l 1,0.6 -1.15,-0.16 a 113.51,113.51 0 0 0 -12,-1.16 22,22 0 0 0 -6.11,0.49 3.1,3.1 0 0 0 -2.23,1.68 3,3 0 0 0 1,2.59 l -0.12,-0.07 9.68,1.87 2.46,0.47 a 11.56,11.56 0 0 1 2.44,0.78 11,11 0 0 1 4.07,3.16 23,23 0 0 1 1.43,2.16 c 0.45,0.72 0.9,1.44 1.34,2.19 a 26.09,26.09 0 0 1 2.2,4.73 45.7,45.7 0 0 1 1.93,10.34 l 0.24,2.48 0.12,1.23 v 5 a 5.84,5.84 0 0 1 -0.41,1.22 8.59,8.59 0 0 1 -3.45,3.54 19.07,19.07 0 0 1 -4.47,1.95 26.54,26.54 0 0 1 -4.71,0.94 c -1.59,0.19 -3.17,0.15 -4.71,0.25 -1.54,0.1 -3.09,0.22 -4.61,0.42 -1.52,0.2 -3,0.5 -4.55,0.69 v -0.5 h 1.61 v 0.51 a 17.77,17.77 0 0 0 -10.2,2.45 15.46,15.46 0 0 0 -4,3.29 5.35,5.35 0 0 0 -1.1,2.21 3.46,3.46 0 0 0 0.33,2.33 2.88,2.88 0 0 0 1.89,1.3 5,5 0 0 0 2.39,-0.07 c 1.59,-0.42 3,-1.38 4.57,-1.95 a 18.23,18.23 0 0 1 9.66,-0.58 57.9,57.9 0 0 1 8.92,2.52 53.17,53.17 0 0 0 8.42,2.31 21.52,21.52 0 0 0 4.14,0.28 28,28 0 0 0 4,-0.51 20.38,20.38 0 0 1 3.95,-0.41 7.84,7.84 0 0 1 1.93,0.29 5.79,5.79 0 0 1 1.73,0.89 v 0 a 11.54,11.54 0 0 1 3.54,3.22 15.44,15.44 0 0 1 2,4 v 0 l 6.3,25.54 1.66,6.83 c 0.18,0.77 0.32,1.35 0.42,1.76 0.1,0.41 0.12,0.61 0.12,0.61 z"
       style="fill:#eb996e"
       id="path189" />
  </g>
  <g
     id="freepik--Plants--inject-2"
     transform="translate(-39.592096,-59.089401)">
    <path
       d="m 431.2,404.79 c -2.69,3.63 -7.69,2.27 -10,0 -2.31,-2.27 -3.17,-5.62 -4,-8.77 -1.86,-7.18 -3.73,-14.71 -2,-21.93 a 12.27,12.27 0 0 1 2.95,-5.87 6.37,6.37 0 0 1 6.07,-1.85 c 2.52,0.74 4,3.27 5.11,5.66 a 52.08,52.08 0 0 1 4.56,22.51 c -0.08,3.6 -0.6,7.37 -2.71,10.29"
       style="fill:#c060a1"
       id="path192" />
    <g
       style="opacity:0.2"
       id="g196">
      <path
         d="m 431.2,404.79 c -2.69,3.63 -7.69,2.27 -10,0 -2.31,-2.27 -3.17,-5.62 -4,-8.77 -1.86,-7.18 -3.73,-14.71 -2,-21.93 a 12.27,12.27 0 0 1 2.95,-5.87 6.37,6.37 0 0 1 6.07,-1.85 c 2.52,0.74 4,3.27 5.11,5.66 a 52.08,52.08 0 0 1 4.56,22.51 c -0.08,3.6 -0.6,7.37 -2.71,10.29"
         id="path194" />
    </g>
    <path
       d="m 421,423.27 c -4.18,-2.3 -9.16,-2.72 -13.88,-2.06 -2.54,0.35 -5.19,1 -7,2.89 -1.81,1.89 -2.18,5.18 -0.25,6.86 a 6.64,6.64 0 0 0 4.31,1.22 c 3.68,0.05 7.78,-0.49 10.66,1.8 1.65,1.31 2.71,3.44 4.7,4.11 a 4.75,4.75 0 0 0 5.28,-2.18 8.11,8.11 0 0 0 0.74,-6 9.1,9.1 0 0 0 -4.56,-6.64 z"
       style="fill:#c060a1"
       id="path198" />
    <path
       d="m 438.17,410.29 c -2.73,-3.42 -3.13,-8.3 -1.77,-12.44 a 23.9,23.9 0 0 1 7.6,-10.45 39.6,39.6 0 0 1 13.35,-7.4 14.07,14.07 0 0 1 5.94,-0.84 6.19,6.19 0 0 1 4.88,3.13 c 1.31,2.67 -0.1,5.83 -1.6,8.4 a 99.88,99.88 0 0 1 -9,12.91 c -2.67,3.27 -5.72,6.48 -9.7,7.88 -3.98,1.4 -8.07,1.12 -10.09,-1.67"
       style="fill:#c060a1"
       id="path200" />
    <path
       d="m 429.9,460.59 a 8.1,8.1 0 0 1 -0.19,-1.69 c -0.09,-1.22 -0.19,-2.76 -0.32,-4.6 -0.13,-1.84 -0.39,-4.24 -0.86,-6.75 a 51.26,51.26 0 0 0 -2.24,-8 29.56,29.56 0 0 0 -3.86,-7.29 15.13,15.13 0 0 0 -5,-4.39 14.21,14.21 0 0 0 -4.29,-1.46 7.7,7.7 0 0 1 -1.66,-0.29 7.61,7.61 0 0 1 1.7,0 13.06,13.06 0 0 1 4.47,1.29 15.2,15.2 0 0 1 5.3,4.44 28.48,28.48 0 0 1 4,7.44 48.09,48.09 0 0 1 2.22,8.14 59,59 0 0 1 0.72,6.83 c 0.09,2 0.1,3.53 0.1,4.62 a 7.38,7.38 0 0 1 -0.09,1.71 z"
       style="fill:#263238"
       id="path202" />
    <path
       d="m 429.68,457.05 a 3.13,3.13 0 0 1 0,-0.78 c 0,-0.59 0,-1.32 0.07,-2.23 0,-1.93 0.13,-4.74 0.11,-8.2 0,-6.92 -0.33,-16.48 -1.2,-27 -0.87,-10.52 -2.17,-20 -3.39,-26.82 -0.29,-1.71 -0.58,-3.25 -0.86,-4.59 -0.28,-1.34 -0.49,-2.51 -0.71,-3.46 -0.22,-0.95 -0.34,-1.6 -0.46,-2.18 a 3.61,3.61 0 0 1 -0.12,-0.77 3.34,3.34 0 0 1 0.25,0.74 c 0.16,0.56 0.35,1.28 0.59,2.15 0.24,0.87 0.53,2.09 0.83,3.44 0.3,1.35 0.64,2.87 1,4.58 a 251.54,251.54 0 0 1 3.6,26.86 c 0.87,10.54 1.14,20.13 1,27.07 -0.06,3.47 -0.2,6.27 -0.34,8.2 -0.08,0.91 -0.15,1.65 -0.2,2.23 a 3.62,3.62 0 0 1 -0.17,0.76 z"
       style="fill:#263238"
       id="path204" />
    <path
       d="m 430.12,438.58 a 14.12,14.12 0 0 1 0.08,-2.33 60.78,60.78 0 0 1 0.88,-6.29 87.14,87.14 0 0 1 6.42,-19.96 58,58 0 0 1 11.76,-17.29 28.93,28.93 0 0 1 2.72,-2.4 c 0.42,-0.33 0.79,-0.66 1.16,-0.93 l 1.05,-0.68 a 13.13,13.13 0 0 1 2,-1.2 69,69 0 0 0 -6.58,5.56 61.22,61.22 0 0 0 -11.47,17.23 87.63,87.63 0 0 0 -4.14,10.71 90.81,90.81 0 0 0 -2.42,9.05 c -0.55,2.61 -0.89,4.74 -1.1,6.22 a 14.26,14.26 0 0 1 -0.36,2.31 z"
       style="fill:#263238"
       id="path206" />
    <path
       d="m 102.06,428.77 c 1.14,-4.52 -1.85,-9 -5.19,-12.3 -3.34,-3.3 -7.33,-6.18 -9.08,-10.51 -2.84,-7 0.87,-16.12 -3.94,-22 -2.83,-3.43 -7.88,-4.55 -10.39,-8.22 -1.32,-1.93 -1.76,-4.3 -2.29,-6.57 a 66.92,66.92 0 0 0 -16.8,-31 58.1,58.1 0 0 0 6.69,30 c 2,3.67 4.35,7.25 5,11.36 1.08,6.67 -2.61,13.57 -0.93,20.12 1.92,7.49 10.37,12.46 10.81,20.18 0.38,6.52 -5.28,12.28 -4.82,18.8 a 17.66,17.66 0 0 0 3,7.73 c 5.09,8.36 12.54,14.09 23.78,13.84 l 13.76,0.4 z"
       style="fill:#c060a1"
       id="path208" />
    <g
       style="opacity:0.3"
       id="g212">
      <path
         d="m 102.06,428.77 c 1.14,-4.52 -1.85,-9 -5.19,-12.3 -3.34,-3.3 -7.33,-6.18 -9.08,-10.51 -2.84,-7 0.87,-16.12 -3.94,-22 -2.83,-3.43 -7.88,-4.55 -10.39,-8.22 -1.32,-1.93 -1.76,-4.3 -2.29,-6.57 a 66.92,66.92 0 0 0 -16.8,-31 58.1,58.1 0 0 0 6.69,30 c 2,3.67 4.35,7.25 5,11.36 1.08,6.67 -2.61,13.57 -0.93,20.12 1.92,7.49 10.37,12.46 10.81,20.18 0.38,6.52 -5.28,12.28 -4.82,18.8 a 17.66,17.66 0 0 0 3,7.73 c 5.09,8.36 12.54,14.09 23.78,13.84 l 13.76,0.4 z"
         id="path210" />
    </g>
    <path
       d="m 116.71,460.75 c 9,-5.4 11.44,-21.63 7.64,-31.37 -3.8,-9.74 -10.42,-18.62 -11.49,-29 -0.82,-8 1.75,-16.22 -0.16,-24 -2.57,-10.54 -12.92,-18.66 -12.87,-29.51 0,-6.08 3.47,-11.83 3.16,-17.91 -0.38,-7.46 -6.14,-13.34 -9.73,-19.89 -5.48,-10 -5.91,-21.92 -7.83,-33.18 -1.92,-11.26 -6.28,-23.38 -16.31,-28.89 -1.42,9.58 -3.9,16.15 -3,29.12 0.31,4.66 5.78,13.54 6.57,23.75 0.47,6.1 0.81,12.21 1.22,18.31 0.4,5.94 0.82,12 3,17.53 1.66,4.26 4.3,8.11 5.54,12.5 2.32,8.26 -0.62,17.24 1.27,25.61 1.6,7.1 6.55,13.18 7.59,20.38 1.47,10.11 -5,20.66 -1.61,30.29 1.69,4.78 5.65,8.61 6.8,13.54 0.89,3.84 0,7.9 0.77,11.75 1.3,6.21 13.17,11.37 19.5,10.95"
       style="fill:#c060a1"
       id="path214" />
    <path
       d="m 71.65,256.51 a 2.19,2.19 0 0 1 0.13,0.53 c 0.08,0.39 0.18,0.91 0.3,1.55 0.27,1.37 0.58,3.42 1.1,6 0.52,2.58 2,5.51 3.14,9.1 1.14,3.59 2.42,7.69 3.5,12.31 1.08,4.62 2,9.73 3,15.21 1,5.48 2,11.34 4.72,17 1.28,2.85 2.73,5.73 3.84,8.85 a 39.75,39.75 0 0 1 2,9.9 201,201 0 0 0 2.76,20.85 c 2.81,14.17 5.49,27.66 7.92,39.94 2.43,12.28 4.78,23.29 6.69,32.58 1.91,9.29 3.38,16.73 4.44,22 0.49,2.55 0.88,4.56 1.16,6 0.12,0.65 0.21,1.17 0.28,1.57 a 3,3 0 0 1 0.07,0.53 1.9,1.9 0 0 1 -0.16,-0.52 l -0.36,-1.54 c -0.32,-1.42 -0.76,-3.41 -1.33,-5.95 -1.12,-5.23 -2.73,-12.71 -4.71,-21.92 -1.98,-9.21 -4.28,-20.3 -6.87,-32.54 -2.59,-12.24 -5.16,-25.78 -8,-39.95 A 195.19,195.19 0 0 1 92.54,337 a 39.58,39.58 0 0 0 -2,-9.7 c -1.08,-3.06 -2.51,-5.93 -3.78,-8.79 -2.76,-5.71 -3.75,-11.73 -4.71,-17.18 -0.96,-5.45 -1.82,-10.59 -2.87,-15.19 -1.05,-4.6 -2.2,-8.73 -3.37,-12.29 -1.17,-3.56 -2.48,-6.55 -3,-9.18 -0.52,-2.63 -0.73,-4.66 -0.94,-6 -0.09,-0.65 -0.16,-1.17 -0.21,-1.57 a 2.72,2.72 0 0 1 -0.01,-0.59 z"
       style="fill:#263238"
       id="path216" />
  </g>
</svg>
